# xmcd
#
# Track frame offsets:
# 150
# 12490
# 26862
# 39985
# 52627
# 65395
# 79340
# 93275
# 106110
# 120025
# 132415
# 144022
# 157210
# 168202
# 181572
# 194485
#
# Disc length: 2712 seconds
#
#
# Revision: 0
# Processed by: cddbd v1.4PL0 Copyright (c) Steve Scherf et al.
# Submitted via: FreeRIP 2.40 
#
DISCID=bf0a9610
DTITLE=Little Walter - Blues With A Feeling
DYEAR=1992
DGENRE=R&B
TTITLE0=Juke
TTITLE1=Sad Hours
TTITLE2=Mean Old World
TTITLE3=Tell Me Mama
TTITLE4=Off The Wall
TTITLE5=Blues With A Feeling
TTITLE6=You're So Fine
TTITLE7=Oh Baby
TTITLE8=You'd Better Watch Yourself
TTITLE9=Last Night
TTITLE10=MY Baby
TTITLE11=Roller Coaster
TTITLE12=Who
TTITLE13=Key To The Highway
TTITLE14=Every Thing Going To Be Alright
TTITLE15=Crazy Mixed Up World
EXTD=Charly Blues Masterworks Vol.23
EXTT0=
EXTT1=
EXTT2=
EXTT3=
EXTT4=
EXTT5=
EXTT6=
EXTT7=
EXTT8=
EXTT9=
EXTT10=
EXTT11=
EXTT12=
EXTT13=
EXTT14=
EXTT15=
PLAYORDER=
